<svg width="28" height="26" viewBox="0 0 28 26" fill="none" xmlns="http://www.w3.org/2000/svg">
<path d="M3.65217 3.71429V0H6.08696V3.71429H9.73913V6.19048H6.08696V9.90476H3.65217V6.19048H0V3.71429H3.65217ZM7.30435 11.1429V7.42857H10.9565V3.71429H19.4783L21.7061 6.19048H25.5652C26.9043 6.19048 28 7.30476 28 8.66667V23.5238C28 24.8857 26.9043 26 25.5652 26H6.08696C4.74783 26 3.65217 24.8857 3.65217 23.5238V11.1429H7.30435ZM15.8261 22.2857C19.1861 22.2857 21.913 19.5124 21.913 16.0952C21.913 12.6781 19.1861 9.90476 15.8261 9.90476C12.4661 9.90476 9.73913 12.6781 9.73913 16.0952C9.73913 19.5124 12.4661 22.2857 15.8261 22.2857ZM11.9304 16.0952C11.9304 18.2867 13.6713 20.0571 15.8261 20.0571C17.9809 20.0571 19.7217 18.2867 19.7217 16.0952C19.7217 13.9038 17.9809 12.1333 15.8261 12.1333C13.6713 12.1333 11.9304 13.9038 11.9304 16.0952Z" fill="#00B37D"/>
</svg>
