<svg width="22" height="22" viewBox="0 0 22 22" fill="none" xmlns="http://www.w3.org/2000/svg">
<path d="M9.89868 19.4334H4.76595C4.56357 19.4334 4.39932 19.5973 4.39932 19.8C4.39932 20.0028 4.56357 20.1667 4.76595 20.1667H9.89868C10.1011 20.1667 10.2653 20.0028 10.2653 19.8C10.2653 19.5973 10.1011 19.4334 9.89868 19.4334Z" fill="black"/>
<path d="M9.89868 17.9669H4.76595C4.56357 17.9669 4.39932 18.1307 4.39932 18.3335C4.39932 18.5362 4.56357 18.7001 4.76595 18.7001H9.89868C10.1011 18.7001 10.2653 18.5362 10.2653 18.3335C10.2653 18.1307 10.1011 17.9669 9.89868 17.9669Z" fill="black"/>
<path d="M7.33232 8.43469C5.31075 8.43469 3.66608 10.244 3.66608 12.4676C3.66608 14.6911 5.31075 16.5004 7.33232 16.5004C9.35388 16.5004 10.9986 14.6911 10.9986 12.4676C10.9986 10.244 9.35388 8.43469 7.33232 8.43469ZM7.33232 15.7672C5.71514 15.7672 4.39932 14.2871 4.39932 12.4676C4.39932 10.648 5.71514 9.16794 7.33232 9.16794C8.94949 9.16794 10.2653 10.648 10.2653 12.4676C10.2653 14.2871 8.94949 15.7672 7.33232 15.7672Z" fill="black"/>
<path d="M7.33231 9.90118C6.52354 9.90118 5.86581 10.5589 5.86581 11.3677C5.86581 12.1765 6.52354 12.8342 7.33231 12.8342C8.14108 12.8342 8.79881 12.1765 8.79881 11.3677C8.79881 10.5589 8.14072 9.90118 7.33231 9.90118ZM7.33231 12.1009C6.92792 12.1009 6.59906 11.7721 6.59906 11.3677C6.59906 10.9633 6.92792 10.6344 7.33231 10.6344C7.7367 10.6344 8.06556 10.9633 8.06556 11.3677C8.06556 11.7721 7.7367 12.1009 7.33231 12.1009Z" fill="black"/>
<path d="M21.6308 21.2665H21.2642V20.1667H19.7977V18.7002H19.0644V13.2008V11.0011V9.7494L20.1746 8.63927C21.1139 7.70034 21.6308 6.45199 21.6308 5.12371V4.0352V3.30196V2.16322C21.6308 1.47177 21.2964 0.839711 20.737 0.472354C19.8879 -0.0852811 18.9339 -0.152007 18.1189 0.287209C17.3453 0.70516 16.8647 1.5088 16.8647 2.38576V8.83871L13.1985 12.505V12.4679C13.1985 10.0115 11.6792 7.90602 9.53222 7.03382V6.60194C9.53222 5.38878 8.54564 4.4022 7.33248 4.4022C6.11932 4.4022 5.13273 5.38878 5.13273 6.60194V7.03382C3.62518 7.64645 2.43255 8.86804 1.85292 10.3917C0.709051 11.0454 0 12.245 0 13.5678C0 14.7245 0.547736 15.7994 1.4665 16.4916V17.6007V18.3339V22.0001H3.66624V21.2669H10.9987V22.0001H13.1985V18.3339V17.6007V15.6158L16.8647 11.9495V13.2012V18.7005H16.1315V20.167H14.665V21.2669H14.2983C14.096 21.2669 13.9317 21.4308 13.9317 21.6335C13.9317 21.8363 14.096 22.0001 14.2983 22.0001H14.665H21.2642H21.6308C21.8332 22.0001 21.9974 21.8363 21.9974 21.6335C21.9974 21.4308 21.8332 21.2665 21.6308 21.2665ZM18.3312 12.4676H17.5979V11.7343H18.3312V12.4676ZM19.4311 3.30196V4.0352V4.51622C19.4311 5.10905 19.3024 5.69088 19.0644 6.22725V2.3854C19.0644 2.28458 19.1466 2.20209 19.2478 2.20209C19.3489 2.20209 19.4311 2.28458 19.4311 2.3854V3.30196ZM20.8976 5.12371C20.8976 6.25585 20.4565 7.32015 19.6562 8.12086L19.0644 8.71259V7.62995C19.7746 6.74676 20.1643 5.64652 20.1643 4.51622V4.0352H20.8976V5.12371ZM17.5979 2.3854C17.5979 1.77863 17.9312 1.22173 18.4672 0.9321C19.0369 0.624503 19.7178 0.68023 20.3344 1.08498C20.682 1.31302 20.8976 1.72621 20.8976 2.16286V3.30159H20.1643V2.38503C20.1643 1.87946 19.753 1.46847 19.2478 1.46847C18.7425 1.46847 18.3312 1.87946 18.3312 2.38503V7.36232V10.4823V11.0007H17.5979V8.10473V2.3854ZM5.86598 6.79222V6.60157C5.86598 5.7928 6.52371 5.13508 7.33248 5.13508C8.14125 5.13508 8.79897 5.7928 8.79897 6.60157V6.79222C8.76928 6.78452 8.73921 6.77902 8.70952 6.77169C8.61933 6.74969 8.52987 6.72696 8.43822 6.70973C8.2934 6.6815 8.14822 6.66023 8.0023 6.643C7.95061 6.63714 7.89855 6.63237 7.84612 6.62797C7.6749 6.61257 7.50369 6.60194 7.33211 6.60194C7.16053 6.60194 6.98932 6.61257 6.8181 6.62797C6.76604 6.63237 6.71398 6.63714 6.66192 6.643C6.51637 6.66023 6.37082 6.6815 6.22601 6.70973C6.13435 6.72732 6.04489 6.75006 5.95471 6.77169C5.92538 6.77902 5.89531 6.78415 5.86598 6.79222ZM0.733248 13.5674C0.733248 12.8005 1.02948 12.083 1.54129 11.5466C1.53285 11.5994 1.52919 11.6522 1.52186 11.705C1.51159 11.7834 1.50022 11.8612 1.49326 11.9407C1.47713 12.116 1.4665 12.2916 1.4665 12.4676V15.5069C0.998683 14.9775 0.733248 14.2911 0.733248 13.5674ZM2.19974 21.2665V18.3335H2.93299V21.2665H2.19974ZM12.4652 21.2665H11.732V18.3335H12.4652V21.2665ZM12.4652 17.6003H10.9987V20.5333H3.66624V17.6003H2.19974V16.9972V12.4676C2.19974 12.3092 2.20928 12.1534 2.22357 11.9986C2.23127 11.9154 2.2441 11.8326 2.2562 11.7497C2.26537 11.6859 2.27417 11.6218 2.28553 11.5587C2.3057 11.4487 2.32953 11.3391 2.35739 11.2302C2.36472 11.2012 2.37206 11.1723 2.37976 11.1433C2.41312 11.0198 2.45051 10.8966 2.49341 10.7741C3.00815 9.30726 4.16925 8.14543 5.63538 7.62922C5.76039 7.58522 5.88651 7.5471 6.013 7.513C6.03646 7.50677 6.06029 7.5009 6.08376 7.49467C6.20071 7.46497 6.31803 7.43931 6.43572 7.41841C6.48008 7.41071 6.52517 7.40448 6.57027 7.39788C6.67365 7.38211 6.77668 7.36708 6.88043 7.35755C6.96035 7.35058 7.04174 7.34875 7.12277 7.34545C7.26319 7.33959 7.4036 7.33959 7.54402 7.34545C7.62504 7.34875 7.70643 7.35058 7.78636 7.35755C7.88975 7.36708 7.99313 7.38175 8.09652 7.39788C8.14125 7.40448 8.18671 7.41071 8.23107 7.41841C8.34876 7.43967 8.46608 7.46534 8.58266 7.49467C8.6065 7.50053 8.62996 7.50677 8.65342 7.513C8.77991 7.5471 8.90603 7.58522 9.03105 7.62922C11.0284 8.3324 12.4659 10.2326 12.4659 12.4676V13.2378V16.3486V17.6003H12.4652ZM13.1985 13.5414L16.8647 9.87516V10.9123L13.1985 14.5786V13.5414ZM17.5979 13.2008H18.3312V18.7002H17.5979V13.2008ZM16.8647 19.4334H19.0644V20.1667H16.8647V19.4334ZM15.3982 21.2665V20.8999H16.1315H19.7977H20.5309V21.2665H15.3982Z" fill="black"/>
</svg>
